<svg width="34" height="34" viewBox="0 0 34 34" fill="none" xmlns="http://www.w3.org/2000/svg">
<path fill-rule="evenodd" clip-rule="evenodd" d="M12.7868 22.6275L21.1766 14.2377L21.6906 19.8896C21.7401 20.4397 22.2273 20.8449 22.7768 20.7947C23.3276 20.7445 23.7321 20.258 23.6826 19.7078L22.9755 11.9297C22.9698 11.8689 22.9443 11.8165 22.9281 11.7593C22.9153 11.7126 22.9104 11.6666 22.8906 11.6214C22.8411 11.5082 22.7746 11.4036 22.6884 11.3173C22.6877 11.3166 22.687 11.3145 22.6862 11.3138C22.6855 11.3131 22.6834 11.3124 22.6827 11.3117C22.5964 11.2254 22.4918 11.1589 22.3787 11.1094C22.3334 11.0896 22.2874 11.0847 22.2408 11.0719C22.1835 11.0557 22.1312 11.0302 22.0704 11.0246L14.2922 10.3175C13.9839 10.2906 13.6961 10.4044 13.4939 10.6067C13.3341 10.7665 13.2273 10.9807 13.2054 11.2233C13.1552 11.7727 13.5603 12.2599 14.1105 12.3094L19.7624 12.8234L11.3725 21.2133C10.9822 21.6036 10.9822 22.2372 11.3725 22.6275C11.7629 23.0178 12.3964 23.0178 12.7868 22.6275Z" fill="#EAA360"/>
<mask id="mask0_915_402" style="mask-type:luminance" maskUnits="userSpaceOnUse" x="11" y="10" width="13" height="13">
<path fill-rule="evenodd" clip-rule="evenodd" d="M12.7868 22.6275L21.1766 14.2377L21.6906 19.8896C21.7401 20.4397 22.2273 20.8449 22.7768 20.7947C23.3276 20.7445 23.7321 20.258 23.6826 19.7078L22.9755 11.9297C22.9698 11.8689 22.9443 11.8165 22.9281 11.7593C22.9153 11.7126 22.9104 11.6666 22.8906 11.6214C22.8411 11.5082 22.7746 11.4036 22.6884 11.3173C22.6877 11.3166 22.687 11.3145 22.6862 11.3138C22.6855 11.3131 22.6834 11.3124 22.6827 11.3117C22.5964 11.2254 22.4918 11.1589 22.3787 11.1094C22.3334 11.0896 22.2874 11.0847 22.2408 11.0719C22.1835 11.0557 22.1312 11.0302 22.0704 11.0246L14.2922 10.3175C13.9839 10.2906 13.6961 10.4044 13.4939 10.6067C13.3341 10.7665 13.2273 10.9807 13.2054 11.2233C13.1552 11.7727 13.5603 12.2599 14.1105 12.3094L19.7624 12.8234L11.3725 21.2133C10.9822 21.6036 10.9822 22.2372 11.3725 22.6275C11.7629 23.0178 12.3964 23.0178 12.7868 22.6275Z" fill="white"/>
</mask>
<g mask="url(#mask0_915_402)">
<rect x="0.0588379" y="16.9706" width="24" height="24" transform="rotate(-45 0.0588379 16.9706)" fill="#EAA360"/>
</g>
</svg>
