<svg width="24" height="25" viewBox="0 0 24 25" fill="none" xmlns="http://www.w3.org/2000/svg">
<path fill-rule="evenodd" clip-rule="evenodd" d="M12 8.53124C12.256 8.53124 12.512 8.62924 12.707 8.82424L16.707 12.8242C17.098 13.2152 17.098 13.8472 16.707 14.2382C16.316 14.6292 15.684 14.6292 15.293 14.2382L11.988 10.9332L8.69499 14.1132C8.29599 14.4962 7.66499 14.4852 7.28099 14.0882C6.89699 13.6912 6.90799 13.0572 7.30499 12.6742L11.305 8.81224C11.5 8.62424 11.75 8.53124 12 8.53124Z" fill="#231F20"/>
<mask id="mask0_828_412" style="mask-type:luminance" maskUnits="userSpaceOnUse" x="7" y="8" width="11" height="7">
<path fill-rule="evenodd" clip-rule="evenodd" d="M12 8.53124C12.256 8.53124 12.512 8.62924 12.707 8.82424L16.707 12.8242C17.098 13.2152 17.098 13.8472 16.707 14.2382C16.316 14.6292 15.684 14.6292 15.293 14.2382L11.988 10.9332L8.69499 14.1132C8.29599 14.4962 7.66499 14.4852 7.28099 14.0882C6.89699 13.6912 6.90799 13.0572 7.30499 12.6742L11.305 8.81224C11.5 8.62424 11.75 8.53124 12 8.53124Z" fill="white"/>
</mask>
<g mask="url(#mask0_828_412)">
<rect x="24" y="24.0312" width="24" height="24" transform="rotate(-180 24 24.0312)" fill="#4CE976"/>
</g>
</svg>
